<svg xmlns="http://www.w3.org/2000/svg" xmlns:xlink="http://www.w3.org/1999/xlink" viewBox="0,0,256,256" width="48px" height="48px" fill-rule="nonzero"><defs><linearGradient x1="27" y1="12.101" x2="27" y2="42.032" gradientUnits="userSpaceOnUse" id="color-1"><stop offset="0" stop-color="#141cbd"></stop><stop offset="1" stop-color="#5792c4"></stop></linearGradient><linearGradient x1="21" y1="6.101" x2="21" y2="36.032" gradientUnits="userSpaceOnUse" id="color-2"><stop offset="0" stop-color="#9fc1dd"></stop><stop offset="1" stop-color="#3857cd"></stop></linearGradient></defs><g fill="none" fill-rule="nonzero" stroke="none" stroke-width="1" stroke-linecap="butt" stroke-linejoin="miter" stroke-miterlimit="10" stroke-dasharray="" stroke-dashoffset="0" font-family="none" font-weight="none" font-size="none" text-anchor="none" style="mix-blend-mode: normal"><g transform="scale(5.33333,5.33333)"><path d="M40,42h-26c-1.1,0 -2,-0.9 -2,-2v-26c0,-1.1 0.9,-2 2,-2h26c1.1,0 2,0.9 2,2v26c0,1.1 -0.9,2 -2,2z" fill="url(#color-1)"></path><path d="M38,12h-26v26h22.319c2.033,0 3.681,-1.648 3.681,-3.681z" fill="#000000" opacity="0.05"></path><path d="M37,12h-25v25h22.161c1.568,0 2.839,-1.271 2.839,-2.839z" fill="#000000" opacity="0.07"></path><path d="M34,36h-26c-1.1,0 -2,-0.9 -2,-2v-26c0,-1.1 0.9,-2 2,-2h26c1.1,0 2,0.9 2,2v26c0,1.1 -0.9,2 -2,2z" fill="url(#color-2)"></path></g></g></svg>