<svg xmlns="http://www.w3.org/2000/svg" xmlns:xlink="http://www.w3.org/1999/xlink" viewBox="0,0,256,256" width="48px" height="48px" fill-rule="nonzero"><defs><linearGradient x1="14.979" y1="6.516" x2="33.561" y2="42.67" gradientUnits="userSpaceOnUse" id="color-1"><stop offset="0" stop-color="#3857cd"></stop><stop offset="0.443" stop-color="#5c7cfa"></stop><stop offset="1" stop-color="#339af0"></stop></linearGradient></defs><g fill="none" fill-rule="nonzero" stroke="none" stroke-width="1" stroke-linecap="butt" stroke-linejoin="miter" stroke-miterlimit="10" stroke-dasharray="" stroke-dashoffset="0" font-family="none" font-weight="none" font-size="none" text-anchor="none" style="mix-blend-mode: normal"><g transform="scale(5.33333,5.33333)"><path d="M44,23.981c0.011,11.045 -8.936,20.008 -19.981,20.019c-11.045,0.011 -20.008,-8.936 -20.019,-19.981c-0.011,-11.045 8.936,-20.008 19.981,-20.019c11.045,-0.011 20.008,8.936 20.019,19.981z" fill="url(#color-1)"></path><path d="M16,34c-3.3,0 -6,-2.7 -6,-6v-6h4v6c0,1.1 0.9,2 2,2c1.1,0 2,-0.9 2,-2v-6.1h4v6.1c0,3.3 -2.7,6 -6,6z" fill="#ffffff"></path><path d="M20,25.1c-1.1,0 -2,-0.9 -2,-2v-5.1c0,-3.3 2.7,-6 6,-6c3.3,0 6,2.7 6,6v3c0,1.1 -0.9,2 -2,2c-1.1,0 -2,-0.9 -2,-2v-3c0,-1.1 -0.9,-2 -2,-2c-1.1,0 -2,0.9 -2,2v5.1c0,1.1 -0.9,2 -2,2zM34,22v6c0,1.1 -0.9,2 -2,2c-1.1,0 -2,-0.9 -2,-2v-3.6c-0.6,0.3 -1.3,0.6 -2,0.6c-0.7,0 -1.4,-0.2 -2,-0.6v3.6c0,3.3 2.7,6 6,6c3.3,0 6,-2.7 6,-6v-6z" fill="#ffffff"></path></g></g></svg>