<svg xmlns="http://www.w3.org/2000/svg" xmlns:xlink="http://www.w3.org/1999/xlink" viewBox="0,0,256,256" width="24px" height="24px" fill-rule="nonzero"><g fill="#ffffff" fill-rule="nonzero" stroke="none" stroke-width="1" stroke-linecap="butt" stroke-linejoin="miter" stroke-miterlimit="10" stroke-dasharray="" stroke-dashoffset="0" font-family="none" font-weight="none" font-size="none" text-anchor="none" style="mix-blend-mode: normal"><g transform="scale(10.66667,10.66667)"><path d="M19,3c-1.654,0 -3,1.346 -3,3c0,0.46176 0.11355,0.89399 0.30078,1.28516l-3.71484,3.71484h-4.76953c-0.41427,-1.16125 -1.5148,-2 -2.81641,-2c-1.654,0 -3,1.346 -3,3c0,1.654 1.346,3 3,3c1.30161,0 2.40214,-0.83875 2.81641,-2h4.76953l3.71484,3.71484c-0.18723,0.39116 -0.30078,0.8234 -0.30078,1.28516c0,1.654 1.346,3 3,3c1.654,0 3,-1.346 3,-3c0,-1.654 -1.346,-3 -3,-3c-0.46176,0 -0.89399,0.11355 -1.28516,0.30078l-3.30078,-3.30078l3.30078,-3.30078c0.39116,0.18723 0.8234,0.30078 1.28516,0.30078c1.654,0 3,-1.346 3,-3c0,-1.654 -1.346,-3 -3,-3z"></path></g></g></svg>